{"glyphs":{"0":{"ha":1017,"x_min":34,"x_max":983,"o":"m 509 0 q 173 139 312 0 q 34 475 34 278 q 173 810 34 671 q 509 949 312 949 q 844 810 705 949 q 983 475 983 671 q 844 139 983 278 q 509 0 705 0 m 509 610 q 413 571 452 610 q 373 475 373 531 q 413 379 373 418 q 509 339 452 339 q 605 379 565 339 q 644 475 644 418 q 605 571 644 531 q 509 610 565 610 z "},"1":{"ha":475,"x_min":49,"x_max":441,"o":"m 170 949 l 373 949 q 441 882 441 949 l 441 68 q 373 0 441 0 l 170 0 q 102 68 102 0 l 102 678 q 49 720 49 678 q 53 746 49 731 l 85 882 q 170 949 102 949 z "},"2":{"ha":814,"x_min":34,"x_max":780,"o":"m 509 949 q 780 646 780 949 q 509 339 780 339 q 373 271 373 339 l 712 271 q 780 203 780 271 l 780 68 q 712 0 780 0 l 102 0 q 34 68 34 0 l 34 339 q 305 610 34 610 q 441 638 441 610 q 373 678 441 678 l 102 678 q 34 746 34 678 l 34 882 q 102 949 34 949 l 509 949 z "},"3":{"ha":814,"x_min":34,"x_max":780,"o":"m 644 475 q 780 271 780 475 q 509 0 780 0 l 102 0 q 34 68 34 0 l 34 203 q 102 271 34 271 l 373 271 q 441 305 441 271 q 373 339 441 339 l 237 339 q 170 407 170 339 l 170 543 q 237 610 170 610 l 373 610 q 441 644 441 610 q 373 678 441 678 l 102 678 q 34 746 34 678 l 34 882 q 102 949 34 949 l 509 949 q 780 678 780 949 q 644 475 780 475 z "},"4":{"ha":949,"x_min":46,"x_max":916,"o":"m 49 406 l 154 879 q 235 949 170 949 l 406 949 q 463 901 463 949 q 461 880 463 892 l 407 610 l 509 610 l 509 882 q 576 949 509 949 l 780 949 q 848 882 848 949 l 848 610 q 916 543 916 610 l 916 407 q 848 339 916 339 l 848 68 q 780 0 848 0 l 576 0 q 509 68 509 0 l 509 339 l 104 339 q 46 385 46 339 q 49 406 46 394 z "},"5":{"ha":814,"x_min":34,"x_max":780,"o":"m 102 0 q 34 68 34 0 l 34 203 q 102 271 34 271 l 373 271 q 441 311 441 271 q 373 339 441 339 l 102 339 q 34 407 34 339 l 34 882 q 102 949 34 949 l 712 949 q 780 882 780 949 l 780 746 q 712 678 780 678 l 373 678 l 373 610 l 509 610 q 780 311 780 610 q 509 0 780 0 l 102 0 z "},"6":{"ha":814,"x_min":34,"x_max":780,"o":"m 459 271 q 509 305 509 271 q 459 339 509 339 l 355 339 q 305 305 305 339 q 355 271 305 271 l 459 271 m 373 678 q 305 610 305 678 l 509 610 q 780 311 780 610 q 509 0 780 0 l 305 0 q 34 311 34 0 l 34 679 q 305 949 34 949 l 644 949 q 712 882 712 949 l 712 746 q 644 678 712 678 l 373 678 z "},"7":{"ha":814,"x_min":34,"x_max":762,"o":"m 375 0 l 171 0 q 120 38 120 0 q 126 69 120 51 l 339 678 l 102 678 q 34 746 34 678 l 34 882 q 102 949 34 949 l 713 949 q 762 913 762 949 q 756 884 762 901 l 465 66 q 375 0 441 0 z "},"8":{"ha":882,"x_min":34,"x_max":848,"o":"m 509 610 q 576 644 576 610 q 509 678 576 678 l 373 677 q 305 642 305 676 q 373 610 305 610 l 509 610 m 170 475 q 34 678 34 475 q 305 949 34 949 l 576 949 q 848 678 848 949 q 712 475 848 475 q 848 271 848 475 q 576 0 848 0 l 305 0 q 34 271 34 0 q 170 475 34 475 m 509 271 q 576 305 576 271 q 509 339 576 339 l 373 338 q 305 303 305 337 q 373 271 305 271 l 509 271 z "},"9":{"ha":814,"x_min":34,"x_max":780,"o":"m 355 678 q 305 644 305 678 q 355 610 305 610 l 459 610 q 509 644 509 610 q 459 678 509 678 l 355 678 m 441 271 q 509 339 509 271 l 305 339 q 34 638 34 339 q 305 949 34 949 l 509 949 q 780 638 780 949 l 780 271 q 509 0 780 0 l 170 0 q 102 68 102 0 l 102 203 q 170 271 102 271 l 441 271 z "},"\u0000":{"ha":0,"x_min":0,"x_max":0,"o":""},"\u001d":{"ha":0,"x_min":0,"x_max":0,"o":""}," ":{"ha":345,"x_min":0,"x_max":0,"o":""}," ":{"ha":345,"x_min":0,"x_max":0,"o":""},"!":{"ha":475,"x_min":34,"x_max":441,"o":"m 237 339 q 357 290 308 339 q 407 170 407 240 q 357 50 407 99 q 237 0 308 0 q 117 50 167 0 q 68 170 68 99 q 117 290 68 240 q 237 339 167 339 m 441 882 l 373 475 q 307 407 361 407 l 170 407 q 102 475 113 407 l 34 882 q 102 949 34 949 l 373 949 q 441 882 441 949 z "},"\"":{"ha":678,"x_min":34,"x_max":644,"o":"m 34 882 q 102 949 34 949 l 237 949 q 305 882 305 949 l 305 610 q 237 543 305 543 l 102 543 q 34 610 34 543 l 34 882 m 373 882 q 441 949 373 949 l 576 949 q 644 882 644 949 l 644 610 q 576 543 644 543 l 441 543 q 373 610 373 543 l 373 882 z "},"#":{"ha":1017,"x_min":34,"x_max":983,"o":"m 916 407 q 983 339 983 407 l 983 203 q 916 136 983 136 l 848 136 l 848 68 q 780 0 848 0 l 644 0 q 576 68 576 0 l 576 136 l 441 136 l 441 68 q 373 0 441 0 l 237 0 q 170 68 170 0 l 170 136 l 102 136 q 34 203 34 136 l 34 339 q 102 407 34 407 l 170 407 l 170 543 l 102 543 q 34 610 34 543 l 34 746 q 102 814 34 814 l 170 814 l 170 882 q 237 949 170 949 l 373 949 q 441 882 441 949 l 441 814 l 576 814 l 576 882 q 644 949 576 949 l 780 949 q 848 882 848 949 l 848 814 l 916 814 q 983 746 983 814 l 983 610 q 916 543 983 543 l 848 543 l 848 407 l 916 407 m 441 407 l 576 407 l 576 543 l 441 543 l 441 407 z "},"$":{"ha":882,"x_min":34,"x_max":848,"o":"m 373 949 l 373 1017 q 441 1085 373 1085 q 509 1017 509 1085 l 509 949 l 712 949 q 780 882 780 949 l 780 746 q 712 678 780 678 l 441 678 q 373 647 373 678 q 441 610 373 610 l 576 610 q 848 308 848 610 q 576 0 848 0 l 509 0 l 509 -68 q 441 -136 509 -136 q 373 -68 373 -136 l 373 0 l 170 0 q 102 68 102 0 l 102 203 q 170 271 102 271 l 441 271 q 509 308 509 271 q 441 339 509 339 l 305 339 q 34 647 34 339 q 305 949 34 949 l 373 949 z "},"%":{"ha":1017,"x_min":34,"x_max":983,"o":"m 814 339 q 934 290 884 339 q 983 170 983 240 q 934 50 983 99 q 814 0 884 0 q 694 50 743 0 q 644 170 644 99 q 694 290 644 240 q 814 339 743 339 m 203 949 q 323 900 274 949 q 373 780 373 850 q 323 660 373 709 q 203 610 274 610 q 83 660 133 610 q 34 780 34 709 q 83 900 34 850 q 203 949 133 949 m 762 1055 l 879 985 q 916 932 916 963 q 903 892 916 913 l 313 -99 q 260 -136 291 -136 q 220 -122 241 -136 l 103 -53 q 66 0 66 -31 q 79 40 66 18 l 669 1030 q 722 1067 691 1067 q 762 1055 741 1067 z "},"&":{"ha":1017,"x_min":34,"x_max":975,"o":"m 576 644 q 509 678 576 678 l 373 677 q 305 642 305 676 q 373 610 305 610 l 509 610 q 576 644 576 610 m 576 305 q 509 339 576 339 l 373 338 q 305 303 305 337 q 373 271 305 271 l 509 271 q 576 305 576 271 m 712 475 q 865 509 814 475 q 897 522 884 522 q 930 485 921 522 l 968 334 q 975 286 975 303 q 963 264 975 269 q 925 253 951 260 q 848 237 871 237 l 848 0 q 780 -68 848 -68 l 644 -68 q 576 0 576 -68 l 305 0 q 34 271 34 0 q 170 475 34 441 q 34 678 34 509 q 305 949 34 949 l 576 949 q 848 678 848 949 q 712 475 848 509 z "},"'":{"ha":339,"x_min":34,"x_max":305,"o":"m 34 882 q 102 949 34 949 l 237 949 q 305 882 305 949 l 305 610 q 237 543 305 543 l 102 543 q 34 610 34 543 l 34 882 z "},"(":{"ha":543,"x_min":34,"x_max":509,"o":"m 34 610 q 441 1085 34 1049 q 509 1018 509 1085 l 509 883 q 407 797 509 814 q 305 610 305 780 l 305 339 q 389 154 305 172 q 490 136 472 136 q 509 68 509 136 l 509 -68 q 441 -136 509 -136 q 34 339 34 -100 l 34 610 z "},")":{"ha":543,"x_min":34,"x_max":509,"o":"m 509 610 l 509 339 q 102 -136 509 -100 q 34 -68 34 -136 l 34 68 q 52 136 34 136 q 154 154 71 136 q 237 339 237 172 l 237 610 q 136 797 237 780 q 34 883 34 814 l 34 1018 q 102 1085 34 1085 q 509 610 509 1049 z "},"*":{"ha":746,"x_min":34,"x_max":712,"o":"m 305 447 l 229 371 q 181 347 205 347 q 133 371 157 347 q 109 418 109 395 q 134 467 109 442 l 210 543 l 102 543 q 34 610 34 543 q 102 678 34 678 l 210 678 l 134 754 q 110 802 110 779 q 134 850 110 827 q 181 874 157 874 q 229 850 205 874 l 305 774 l 305 882 q 373 949 305 949 q 441 882 441 949 l 441 774 l 517 850 q 565 874 541 874 q 613 850 589 874 q 637 802 637 826 q 613 754 637 779 l 537 678 l 644 678 q 712 610 712 678 q 644 543 712 543 l 536 543 l 612 467 q 637 418 637 443 q 612 370 637 395 q 565 347 589 347 q 517 371 541 347 l 441 447 l 441 339 q 373 271 441 271 q 305 339 305 271 l 305 447 z "},"+":{"ha":746,"x_min":34,"x_max":712,"o":"m 509 610 l 644 610 q 712 543 712 610 l 712 407 q 644 339 712 339 l 509 339 l 509 203 q 441 136 509 136 l 305 136 q 237 203 237 136 l 237 339 l 102 339 q 34 407 34 339 l 34 543 q 102 610 34 610 l 237 610 l 237 746 q 305 814 237 814 l 441 814 q 509 746 509 814 l 509 610 z "},",":{"ha":543,"x_min":52,"x_max":487,"o":"m 475 273 l 326 -31 q 237 -68 305 -68 l 104 -68 q 52 -28 52 -68 q 58 3 52 -15 l 148 274 q 233 339 170 339 l 446 339 q 487 311 487 339 q 475 273 487 296 z "},"-":{"ha":543,"x_min":34,"x_max":509,"o":"m 441 610 q 509 543 509 610 l 509 407 q 441 339 509 339 l 102 339 q 34 407 34 339 l 34 543 q 102 610 34 610 l 441 610 z "},"­":{"ha":543,"x_min":34,"x_max":509,"o":"m 441 610 q 509 543 509 610 l 509 407 q 441 339 509 339 l 102 339 q 34 407 34 339 l 34 543 q 102 610 34 610 l 441 610 z "},".":{"ha":407,"x_min":34,"x_max":373,"o":"m 203 339 q 323 290 274 339 q 373 170 373 240 q 323 50 373 99 q 203 0 274 0 q 83 50 133 0 q 34 170 34 99 q 83 290 34 240 q 203 339 133 339 z "},"/":{"ha":960,"x_min":56,"x_max":905,"o":"m 751 1055 l 868 985 q 905 932 905 963 q 892 892 905 913 l 302 -99 q 250 -136 280 -136 q 209 -122 231 -136 l 92 -53 q 56 0 56 -31 q 68 40 56 18 l 659 1030 q 711 1067 680 1067 q 751 1055 730 1067 z "},":":{"ha":407,"x_min":34,"x_max":373,"o":"m 203 339 q 323 290 274 339 q 373 170 373 240 q 323 50 373 99 q 203 0 274 0 q 83 50 133 0 q 34 170 34 99 q 83 290 34 240 q 203 339 133 339 m 203 746 q 323 696 274 746 q 373 576 373 647 q 323 456 373 506 q 203 407 274 407 q 83 456 133 407 q 34 576 34 506 q 83 696 34 647 q 203 746 133 746 z "},";":{"ha":543,"x_min":52,"x_max":509,"o":"m 475 273 l 326 -31 q 237 -68 305 -68 l 104 -68 q 52 -28 52 -68 q 58 3 52 -15 l 148 274 q 233 339 170 339 l 446 339 q 487 311 487 339 q 475 273 487 296 m 339 746 q 459 696 410 746 q 509 576 509 647 q 459 456 509 506 q 339 407 410 407 q 219 456 269 407 q 170 576 170 506 q 219 696 170 647 q 339 746 269 746 z "},";":{"ha":543,"x_min":52,"x_max":509,"o":"m 475 273 l 326 -31 q 237 -68 305 -68 l 104 -68 q 52 -28 52 -68 q 58 3 52 -15 l 148 274 q 233 339 170 339 l 446 339 q 487 311 487 339 q 475 273 487 296 m 339 746 q 459 696 410 746 q 509 576 509 647 q 459 456 509 506 q 339 407 410 407 q 219 456 269 407 q 170 576 170 506 q 219 696 170 647 q 339 746 269 746 z "},"<":{"ha":829,"x_min":65,"x_max":772,"o":"m 96 540 l 157 598 l 281 715 l 513 934 q 560 956 537 956 q 609 930 585 956 l 749 783 q 772 735 772 759 q 746 687 772 711 l 528 481 l 746 276 q 772 228 772 252 q 749 180 772 204 l 609 33 q 560 7 585 7 q 513 29 537 7 l 281 248 l 157 365 l 96 423 q 65 481 65 452 q 96 540 65 511 z "},"=":{"ha":746,"x_min":34,"x_max":712,"o":"m 644 814 q 712 746 712 814 l 712 610 q 644 543 712 543 l 102 543 q 34 610 34 543 l 34 746 q 102 814 34 814 l 644 814 m 644 407 q 712 339 712 407 l 712 203 q 644 136 712 136 l 102 136 q 34 203 34 136 l 34 339 q 102 407 34 407 l 644 407 z "},">":{"ha":829,"x_min":58,"x_max":765,"o":"m 734 423 l 549 248 l 316 29 q 269 7 292 7 q 220 33 244 7 l 81 180 q 58 228 58 204 q 83 276 58 252 l 301 481 l 83 687 q 58 735 58 711 q 81 783 58 759 l 220 930 q 269 956 244 956 q 316 934 292 956 l 549 715 l 734 540 q 765 481 765 511 q 734 423 765 452 z "},"?":{"ha":814,"x_min":34,"x_max":780,"o":"m 407 339 q 527 290 477 339 q 576 170 576 240 q 527 50 576 99 q 407 0 477 0 q 287 50 336 0 q 237 170 237 99 q 287 290 237 240 q 407 339 336 339 m 305 610 l 373 610 q 441 638 441 610 q 373 678 441 678 l 102 678 q 34 746 34 678 l 34 882 q 102 949 34 949 l 509 949 q 780 678 780 949 q 576 475 780 475 q 486 407 543 407 l 335 407 q 260 471 271 407 l 248 544 q 247 561 247 553 q 305 610 247 610 z "},"@":{"ha":1024,"x_min":34,"x_max":990,"o":"m 522 288 q 386 243 469 243 q 273 288 309 243 q 247 365 247 319 q 252 409 247 385 q 379 625 277 531 q 600 719 481 719 q 714 693 661 719 q 745 644 745 677 q 718 564 745 621 q 678 469 691 507 q 659 404 665 431 q 657 388 657 395 q 666 374 657 374 q 762 437 715 374 q 826 587 808 500 q 838 663 838 629 q 803 757 838 722 q 648 813 747 813 q 362 694 490 813 q 197 395 235 576 q 189 323 189 357 q 224 206 189 254 q 384 135 276 135 q 501 155 441 135 q 588 199 562 174 q 604 205 596 205 q 646 167 624 205 q 660 121 660 141 q 632 78 660 99 q 512 28 604 57 q 342 0 421 0 q 92 106 175 0 q 34 286 34 180 q 45 382 34 331 q 278 786 96 624 q 689 948 460 948 q 934 857 854 948 q 990 695 990 792 q 980 607 990 654 q 852 358 950 467 q 631 250 753 250 q 522 288 548 250 m 571 601 q 475 543 524 601 q 411 416 426 484 q 409 397 409 406 q 432 372 409 372 q 493 399 464 372 q 542 473 522 426 q 590 595 561 519 q 571 601 585 601 z "},"A":{"ha":1055,"x_min":50,"x_max":1006,"o":"m 528 536 l 469 339 l 587 339 l 528 536 m 392 68 q 358 17 392 34 q 189 0 324 0 l 121 0 q 50 47 50 2 q 53 68 50 56 l 310 899 q 460 949 324 949 l 595 949 q 745 899 731 949 l 1002 68 q 1006 47 1006 56 q 935 0 1006 2 l 867 0 q 699 17 731 0 q 668 64 668 33 l 668 68 l 392 68 z "},"B":{"ha":882,"x_min":34,"x_max":848,"o":"m 102 0 q 34 68 34 0 l 34 882 q 102 949 34 949 l 576 949 q 848 678 848 949 q 712 475 848 509 q 848 271 848 441 q 576 0 848 0 l 102 0 m 373 678 l 373 576 l 441 576 q 509 627 509 576 q 441 678 509 678 l 373 678 m 373 373 l 373 271 l 441 271 q 509 323 509 271 q 441 373 509 373 l 373 373 z "},"C":{"ha":882,"x_min":34,"x_max":829,"o":"m 173 139 q 103 209 173 139 q 34 475 34 278 q 173 810 34 671 q 509 949 312 949 q 804 847 677 949 q 829 807 829 828 q 814 774 829 791 l 650 610 q 608 583 627 583 q 582 597 599 583 q 509 610 565 610 q 413 571 452 610 q 373 475 373 531 q 413 379 373 418 q 509 339 452 339 q 561 349 537 339 q 602 366 583 366 q 643 339 625 366 l 810 172 q 827 139 827 155 q 803 102 827 120 q 509 0 677 0 q 173 139 312 0 z "},"D":{"ha":882,"x_min":34,"x_max":848,"o":"m 102 0 q 34 68 34 0 l 34 882 q 102 949 34 949 l 373 949 q 848 475 848 949 q 373 0 848 0 l 102 0 m 373 339 q 509 475 509 339 q 373 610 509 610 l 373 339 z "},"E":{"ha":746,"x_min":34,"x_max":712,"o":"m 644 949 q 712 882 712 949 l 712 746 q 644 678 712 678 l 373 678 l 373 610 l 576 610 q 644 543 644 610 l 644 407 q 576 339 644 339 l 373 339 l 373 271 l 644 271 q 712 203 712 271 l 712 68 q 644 0 712 0 l 102 0 q 34 68 34 0 l 34 882 q 102 949 34 949 l 644 949 z "},"F":{"ha":746,"x_min":34,"x_max":712,"o":"m 644 949 q 712 882 712 949 l 712 746 q 644 678 712 678 l 373 678 l 373 610 l 644 610 q 712 543 712 610 l 712 407 q 644 339 712 339 l 373 339 l 373 68 q 305 0 373 0 l 102 0 q 34 68 34 0 l 34 882 q 102 949 34 949 l 644 949 z "},"G":{"ha":949,"x_min":34,"x_max":916,"o":"m 509 0 q 173 139 312 0 q 34 475 34 278 q 173 810 34 671 q 509 949 312 949 q 798 851 674 949 q 825 808 825 831 q 805 765 825 787 l 649 614 q 602 586 628 586 q 559 602 582 586 q 509 610 536 610 q 413 571 452 610 q 373 475 373 531 q 413 379 373 418 q 509 339 452 339 q 576 357 546 339 l 576 475 q 644 543 576 543 l 848 543 q 916 475 916 543 l 916 68 q 848 0 916 0 l 509 0 z "},"H":{"ha":882,"x_min":34,"x_max":848,"o":"m 373 339 l 373 68 q 305 0 373 0 l 102 0 q 34 68 34 0 l 34 882 q 102 949 34 949 l 305 949 q 373 882 373 949 l 373 610 l 509 610 l 509 882 q 576 949 509 949 l 780 949 q 848 882 848 949 l 848 68 q 780 0 848 0 l 576 0 q 509 68 509 0 l 509 339 l 373 339 z "},"I":{"ha":407,"x_min":34,"x_max":373,"o":"m 305 949 q 373 882 373 949 l 373 68 q 305 0 373 0 l 102 0 q 34 68 34 0 l 34 882 q 102 949 34 949 l 305 949 z "},"J":{"ha":610,"x_min":34,"x_max":576,"o":"m 170 339 q 237 467 237 339 l 237 882 q 305 949 237 949 l 509 949 q 576 882 574 949 l 574 475 q 170 0 574 0 l 102 0 q 34 68 34 0 l 34 271 q 102 339 34 339 l 170 339 z "},"K":{"ha":905,"x_min":34,"x_max":848,"o":"m 34 882 q 102 949 34 949 l 305 949 q 373 882 373 949 l 373 723 l 589 927 q 636 949 613 949 q 685 924 661 949 l 825 776 q 848 728 848 752 q 822 680 848 704 l 604 475 l 822 269 q 848 221 848 245 q 825 174 848 197 l 685 26 q 636 0 661 0 q 589 22 613 0 l 373 227 l 373 68 q 305 0 373 0 l 102 0 q 34 68 34 0 l 34 882 z "},"L":{"ha":678,"x_min":34,"x_max":644,"o":"m 34 882 q 102 949 34 949 l 305 949 q 373 882 373 949 l 373 271 l 576 271 q 644 203 644 271 l 644 68 q 576 0 644 0 l 102 0 q 34 68 34 0 l 34 882 z "},"M":{"ha":1153,"x_min":34,"x_max":1119,"o":"m 373 475 l 373 68 q 305 0 373 0 l 102 0 q 34 68 34 0 l 34 882 q 102 949 34 949 l 304 949 q 400 908 373 949 l 576 644 l 750 905 q 846 949 780 949 l 1051 949 q 1119 882 1119 949 l 1119 68 q 1051 0 1119 0 l 848 0 q 780 68 780 0 l 780 475 q 610 208 644 233 q 576 195 593 195 q 534 214 559 195 q 373 475 509 233 z "},"N":{"ha":882,"x_min":34,"x_max":848,"o":"m 373 407 l 373 68 q 305 0 373 0 l 102 0 q 34 68 34 0 l 34 882 q 102 949 34 949 l 305 949 q 395 884 373 949 l 509 543 l 509 882 q 576 949 509 949 l 780 949 q 848 882 848 949 l 848 68 q 780 0 848 0 l 576 0 q 486 68 509 0 l 373 407 z "},"O":{"ha":1017,"x_min":34,"x_max":983,"o":"m 509 0 q 173 139 312 0 q 34 475 34 278 q 173 810 34 671 q 509 949 312 949 q 844 810 705 949 q 983 475 983 671 q 844 139 983 278 q 509 0 705 0 m 509 610 q 413 571 452 610 q 373 475 373 531 q 413 379 373 418 q 509 339 452 339 q 605 379 565 339 q 644 475 644 418 q 605 571 644 531 q 509 610 565 610 z "},"P":{"ha":882,"x_min":34,"x_max":848,"o":"m 373 271 l 373 68 q 305 0 373 0 l 102 0 q 34 68 34 0 l 34 882 q 102 949 34 949 l 576 949 q 848 610 848 949 q 576 271 848 271 l 373 271 m 373 678 l 373 543 l 441 543 q 509 610 509 543 q 441 678 509 678 l 373 678 z "},"Q":{"ha":1041,"x_min":34,"x_max":983,"o":"m 509 610 q 413 571 452 610 q 373 475 373 531 q 413 379 373 418 q 509 339 452 339 q 605 379 565 339 q 644 475 644 418 q 605 571 644 531 q 509 610 565 610 m 581 5 q 509 0 546 0 q 173 139 312 0 q 34 475 34 278 q 173 810 34 671 q 509 949 312 949 q 844 810 705 949 q 983 475 983 671 q 885 184 983 309 l 958 116 q 983 68 983 92 q 960 20 983 44 l 821 -127 q 772 -153 797 -153 q 725 -131 749 -153 l 581 5 z "},"R":{"ha":950,"x_min":34,"x_max":892,"o":"m 373 678 l 373 543 l 441 543 q 509 610 509 543 q 441 678 509 678 l 373 678 m 373 265 l 373 68 q 305 0 373 0 l 102 0 q 34 68 34 0 l 34 882 q 102 949 34 949 l 576 949 q 848 610 848 949 q 768 362 848 427 l 867 269 q 892 221 892 245 q 869 174 892 197 l 730 26 q 681 0 706 0 q 634 22 658 0 l 376 266 l 373 265 z "},"S":{"ha":882,"x_min":34,"x_max":848,"o":"m 305 949 l 712 949 q 780 882 780 949 l 780 746 q 712 678 780 678 l 441 678 q 373 647 373 678 q 441 610 373 610 l 576 610 q 848 308 848 610 q 576 0 848 0 l 170 0 q 102 68 102 0 l 102 203 q 170 271 102 271 l 441 271 q 509 308 509 271 q 441 339 509 339 l 305 339 q 34 647 34 339 q 305 949 34 949 z "},"T":{"ha":814,"x_min":34,"x_max":780,"o":"m 576 610 l 576 68 q 509 0 576 0 l 305 0 q 237 68 237 0 l 237 610 l 102 610 q 34 678 34 610 l 34 882 q 102 949 34 949 l 712 949 q 780 882 780 949 l 780 678 q 712 610 780 610 l 576 610 z "},"U":{"ha":949,"x_min":34,"x_max":916,"o":"m 472 339 q 578 475 578 340 l 576 882 q 644 949 578 949 l 848 949 q 916 882 916 949 l 916 475 q 509 0 916 20 l 441 0 q 34 475 34 16 l 34 882 q 102 949 34 949 l 305 949 q 373 882 373 949 l 373 475 q 472 339 373 340 z "},"V":{"ha":1055,"x_min":50,"x_max":1006,"o":"m 699 932 q 715 941 699 932 q 867 949 731 949 l 935 949 q 1006 903 1006 947 q 1002 882 1006 893 l 745 50 q 595 0 731 0 l 460 0 q 310 50 324 0 l 53 882 q 50 903 50 893 q 121 949 50 947 l 189 949 q 358 932 324 949 q 469 610 392 916 l 528 413 l 587 610 q 699 932 666 916 z "},"W":{"ha":1424,"x_min":51,"x_max":1373,"o":"m 712 203 l 667 69 q 574 0 644 0 l 401 0 q 311 71 333 0 l 56 879 q 51 910 51 897 q 100 949 51 949 l 304 949 q 395 884 373 949 l 509 543 l 565 881 q 643 949 576 949 l 778 949 q 859 884 848 949 l 916 543 l 1028 880 q 1116 949 1051 949 l 1320 949 q 1373 909 1373 949 q 1368 880 1373 897 l 1107 68 q 1017 0 1086 0 l 848 0 q 758 66 780 0 l 712 203 z "},"X":{"ha":979,"x_min":57,"x_max":922,"o":"m 269 475 l 77 705 q 57 751 57 729 q 85 801 57 777 l 242 931 q 288 951 266 951 q 338 922 314 951 l 490 740 l 642 922 q 692 951 665 951 q 737 931 713 951 l 894 801 q 922 751 922 777 q 903 705 922 729 l 711 475 l 903 245 q 922 200 922 222 q 894 150 922 174 l 737 20 q 692 0 713 0 q 642 28 665 0 l 490 210 l 338 28 q 288 0 314 0 q 242 20 266 0 l 85 150 q 58 199 58 174 q 77 245 58 222 l 269 475 z "},"Y":{"ha":1065,"x_min":58,"x_max":1007,"o":"m 363 389 l 80 691 q 58 738 58 715 q 83 787 58 763 l 231 926 q 279 949 255 949 q 327 924 303 949 l 532 706 l 738 924 q 786 949 762 949 q 833 926 810 949 l 981 787 q 1007 738 1007 763 q 985 691 1007 715 l 703 394 l 703 68 q 635 0 703 0 l 431 0 q 363 68 363 0 l 363 389 z "},"Z":{"ha":814,"x_min":34,"x_max":780,"o":"m 712 949 q 780 882 780 949 l 780 750 q 735 625 780 678 l 441 271 l 712 271 q 780 203 780 271 l 780 68 q 712 0 780 0 l 102 0 q 34 68 34 0 l 34 203 q 87 335 34 271 l 373 678 l 102 678 q 34 746 34 678 l 34 882 q 102 949 34 949 l 712 949 z "},"[":{"ha":543,"x_min":34,"x_max":509,"o":"m 509 1085 l 509 814 l 305 814 l 305 136 l 509 136 l 509 -136 l 34 -136 l 34 1085 l 509 1085 z "},"\\":{"ha":960,"x_min":56,"x_max":905,"o":"m 302 1030 l 892 40 q 905 0 905 18 q 868 -53 905 -31 l 751 -122 q 711 -136 730 -136 q 659 -99 680 -136 l 68 892 q 56 932 56 913 q 92 985 56 963 l 209 1055 q 249 1067 231 1067 q 302 1030 280 1067 z "},"]":{"ha":543,"x_min":34,"x_max":509,"o":"m 509 1085 l 509 -136 l 34 -136 l 34 136 l 237 136 l 237 814 l 34 814 l 34 1085 l 509 1085 z "},"^":{"ha":644,"x_min":51,"x_max":593,"o":"m 586 999 q 593 968 593 981 q 553 939 593 939 l 438 939 q 357 997 380 939 l 322 1082 l 288 997 q 207 939 264 939 l 94 939 q 51 969 51 939 q 57 996 51 981 q 236 1313 149 1227 q 322 1356 279 1356 q 430 1292 366 1356 q 586 999 495 1227 z "},"_":{"ha":882,"x_min":34,"x_max":848,"o":"m 780 271 q 848 203 848 271 l 848 68 q 780 0 848 0 l 102 0 q 34 68 34 0 l 34 203 q 102 271 34 271 l 780 271 z "},"`":{"ha":488,"x_min":53,"x_max":435,"o":"m 412 1041 l 326 970 q 288 954 306 954 q 247 977 267 954 l 69 1191 q 53 1228 53 1210 q 77 1269 53 1250 l 162 1340 q 199 1356 182 1356 q 240 1333 221 1356 l 418 1120 q 435 1082 435 1100 q 412 1041 435 1060 z "},"a":{"ha":1055,"x_min":50,"x_max":1006,"o":"m 528 536 l 469 339 l 587 339 l 528 536 m 392 68 q 358 17 392 34 q 189 0 324 0 l 121 0 q 50 47 50 2 q 53 68 50 56 l 310 899 q 460 949 324 949 l 595 949 q 745 899 731 949 l 1002 68 q 1006 47 1006 56 q 935 0 1006 2 l 867 0 q 699 17 731 0 q 668 64 668 33 l 668 68 l 392 68 z "},"b":{"ha":882,"x_min":34,"x_max":848,"o":"m 102 0 q 34 68 34 0 l 34 882 q 102 949 34 949 l 576 949 q 848 678 848 949 q 712 475 848 509 q 848 271 848 441 q 576 0 848 0 l 102 0 m 373 678 l 373 576 l 441 576 q 509 627 509 576 q 441 678 509 678 l 373 678 m 373 373 l 373 271 l 441 271 q 509 323 509 271 q 441 373 509 373 l 373 373 z "},"c":{"ha":882,"x_min":34,"x_max":829,"o":"m 173 139 q 103 209 173 139 q 34 475 34 278 q 173 810 34 671 q 509 949 312 949 q 804 847 677 949 q 829 807 829 828 q 814 774 829 791 l 650 610 q 608 583 627 583 q 582 597 599 583 q 509 610 565 610 q 413 571 452 610 q 373 475 373 531 q 413 379 373 418 q 509 339 452 339 q 561 349 537 339 q 602 366 583 366 q 643 339 625 366 l 810 172 q 827 139 827 155 q 803 102 827 120 q 509 0 677 0 q 173 139 312 0 z "},"d":{"ha":882,"x_min":34,"x_max":848,"o":"m 102 0 q 34 68 34 0 l 34 882 q 102 949 34 949 l 373 949 q 848 475 848 949 q 373 0 848 0 l 102 0 m 373 339 q 509 475 509 339 q 373 610 509 610 l 373 339 z "},"e":{"ha":746,"x_min":34,"x_max":712,"o":"m 644 949 q 712 882 712 949 l 712 746 q 644 678 712 678 l 373 678 l 373 610 l 576 610 q 644 543 644 610 l 644 407 q 576 339 644 339 l 373 339 l 373 271 l 644 271 q 712 203 712 271 l 712 68 q 644 0 712 0 l 102 0 q 34 68 34 0 l 34 882 q 102 949 34 949 l 644 949 z "},"f":{"ha":746,"x_min":34,"x_max":712,"o":"m 644 949 q 712 882 712 949 l 712 746 q 644 678 712 678 l 373 678 l 373 610 l 644 610 q 712 543 712 610 l 712 407 q 644 339 712 339 l 373 339 l 373 68 q 305 0 373 0 l 102 0 q 34 68 34 0 l 34 882 q 102 949 34 949 l 644 949 z "},"g":{"ha":949,"x_min":34,"x_max":916,"o":"m 509 0 q 173 139 312 0 q 34 475 34 278 q 173 810 34 671 q 509 949 312 949 q 798 851 674 949 q 825 808 825 831 q 805 765 825 787 l 649 614 q 602 586 628 586 q 559 602 582 586 q 509 610 536 610 q 413 571 452 610 q 373 475 373 531 q 413 379 373 418 q 509 339 452 339 q 576 357 546 339 l 576 475 q 644 543 576 543 l 848 543 q 916 475 916 543 l 916 68 q 848 0 916 0 l 509 0 z "},"h":{"ha":882,"x_min":34,"x_max":848,"o":"m 373 339 l 373 68 q 305 0 373 0 l 102 0 q 34 68 34 0 l 34 882 q 102 949 34 949 l 305 949 q 373 882 373 949 l 373 610 l 509 610 l 509 882 q 576 949 509 949 l 780 949 q 848 882 848 949 l 848 68 q 780 0 848 0 l 576 0 q 509 68 509 0 l 509 339 l 373 339 z "},"i":{"ha":407,"x_min":34,"x_max":373,"o":"m 305 949 q 373 882 373 949 l 373 68 q 305 0 373 0 l 102 0 q 34 68 34 0 l 34 882 q 102 949 34 949 l 305 949 z "},"j":{"ha":610,"x_min":34,"x_max":576,"o":"m 170 339 q 237 467 237 339 l 237 882 q 305 949 237 949 l 509 949 q 576 882 574 949 l 574 475 q 170 0 574 0 l 102 0 q 34 68 34 0 l 34 271 q 102 339 34 339 l 170 339 z "},"k":{"ha":905,"x_min":34,"x_max":848,"o":"m 34 882 q 102 949 34 949 l 305 949 q 373 882 373 949 l 373 723 l 589 927 q 636 949 613 949 q 685 924 661 949 l 825 776 q 848 728 848 752 q 822 680 848 704 l 604 475 l 822 269 q 848 221 848 245 q 825 174 848 197 l 685 26 q 636 0 661 0 q 589 22 613 0 l 373 227 l 373 68 q 305 0 373 0 l 102 0 q 34 68 34 0 l 34 882 z "},"l":{"ha":678,"x_min":34,"x_max":644,"o":"m 34 882 q 102 949 34 949 l 305 949 q 373 882 373 949 l 373 271 l 576 271 q 644 203 644 271 l 644 68 q 576 0 644 0 l 102 0 q 34 68 34 0 l 34 882 z "},"m":{"ha":1153,"x_min":34,"x_max":1119,"o":"m 373 475 l 373 68 q 305 0 373 0 l 102 0 q 34 68 34 0 l 34 882 q 102 949 34 949 l 304 949 q 400 908 373 949 l 576 644 l 750 905 q 846 949 780 949 l 1051 949 q 1119 882 1119 949 l 1119 68 q 1051 0 1119 0 l 848 0 q 780 68 780 0 l 780 475 q 610 208 644 233 q 576 195 593 195 q 534 214 559 195 q 373 475 509 233 z "},"n":{"ha":882,"x_min":34,"x_max":848,"o":"m 373 407 l 373 68 q 305 0 373 0 l 102 0 q 34 68 34 0 l 34 882 q 102 949 34 949 l 305 949 q 395 884 373 949 l 509 543 l 509 882 q 576 949 509 949 l 780 949 q 848 882 848 949 l 848 68 q 780 0 848 0 l 576 0 q 486 68 509 0 l 373 407 z "},"o":{"ha":1017,"x_min":34,"x_max":983,"o":"m 509 0 q 173 139 312 0 q 34 475 34 278 q 173 810 34 671 q 509 949 312 949 q 844 810 705 949 q 983 475 983 671 q 844 139 983 278 q 509 0 705 0 m 509 610 q 413 571 452 610 q 373 475 373 531 q 413 379 373 418 q 509 339 452 339 q 605 379 565 339 q 644 475 644 418 q 605 571 644 531 q 509 610 565 610 z "},"p":{"ha":882,"x_min":34,"x_max":848,"o":"m 373 271 l 373 68 q 305 0 373 0 l 102 0 q 34 68 34 0 l 34 882 q 102 949 34 949 l 576 949 q 848 610 848 949 q 576 271 848 271 l 373 271 m 373 678 l 373 543 l 441 543 q 509 610 509 543 q 441 678 509 678 l 373 678 z "},"q":{"ha":1041,"x_min":34,"x_max":983,"o":"m 509 610 q 413 571 452 610 q 373 475 373 531 q 413 379 373 418 q 509 339 452 339 q 605 379 565 339 q 644 475 644 418 q 605 571 644 531 q 509 610 565 610 m 581 5 q 509 0 546 0 q 173 139 312 0 q 34 475 34 278 q 173 810 34 671 q 509 949 312 949 q 844 810 705 949 q 983 475 983 671 q 885 184 983 309 l 958 116 q 983 68 983 92 q 960 20 983 44 l 821 -127 q 772 -153 797 -153 q 725 -131 749 -153 l 581 5 z "},"r":{"ha":950,"x_min":34,"x_max":892,"o":"m 373 678 l 373 543 l 441 543 q 509 610 509 543 q 441 678 509 678 l 373 678 m 373 265 l 373 68 q 305 0 373 0 l 102 0 q 34 68 34 0 l 34 882 q 102 949 34 949 l 576 949 q 848 610 848 949 q 768 362 848 427 l 867 269 q 892 221 892 245 q 869 174 892 197 l 730 26 q 681 0 706 0 q 634 22 658 0 l 376 266 l 373 265 z "},"s":{"ha":882,"x_min":34,"x_max":848,"o":"m 305 949 l 712 949 q 780 882 780 949 l 780 746 q 712 678 780 678 l 441 678 q 373 647 373 678 q 441 610 373 610 l 576 610 q 848 308 848 610 q 576 0 848 0 l 170 0 q 102 68 102 0 l 102 203 q 170 271 102 271 l 441 271 q 509 308 509 271 q 441 339 509 339 l 305 339 q 34 647 34 339 q 305 949 34 949 z "},"t":{"ha":814,"x_min":34,"x_max":780,"o":"m 576 610 l 576 68 q 509 0 576 0 l 305 0 q 237 68 237 0 l 237 610 l 102 610 q 34 678 34 610 l 34 882 q 102 949 34 949 l 712 949 q 780 882 780 949 l 780 678 q 712 610 780 610 l 576 610 z "},"u":{"ha":949,"x_min":34,"x_max":916,"o":"m 472 339 q 578 475 578 340 l 576 882 q 644 949 578 949 l 848 949 q 916 882 916 949 l 916 475 q 509 0 916 20 l 441 0 q 34 475 34 16 l 34 882 q 102 949 34 949 l 305 949 q 373 882 373 949 l 373 475 q 472 339 373 340 z "},"v":{"ha":1055,"x_min":50,"x_max":1006,"o":"m 699 932 q 715 941 699 932 q 867 949 731 949 l 935 949 q 1006 903 1006 947 q 1002 882 1006 893 l 745 50 q 595 0 731 0 l 460 0 q 310 50 324 0 l 53 882 q 50 903 50 893 q 121 949 50 947 l 189 949 q 358 932 324 949 q 469 610 392 916 l 528 413 l 587 610 q 699 932 666 916 z "},"w":{"ha":1424,"x_min":51,"x_max":1373,"o":"m 712 203 l 667 69 q 574 0 644 0 l 401 0 q 311 71 333 0 l 56 879 q 51 910 51 897 q 100 949 51 949 l 304 949 q 395 884 373 949 l 509 543 l 565 881 q 643 949 576 949 l 778 949 q 859 884 848 949 l 916 543 l 1028 880 q 1116 949 1051 949 l 1320 949 q 1373 909 1373 949 q 1368 880 1373 897 l 1107 68 q 1017 0 1086 0 l 848 0 q 758 66 780 0 l 712 203 z "},"x":{"ha":979,"x_min":57,"x_max":922,"o":"m 269 475 l 77 705 q 57 751 57 729 q 85 801 57 777 l 242 931 q 288 951 266 951 q 338 922 314 951 l 490 740 l 642 922 q 692 951 665 951 q 737 931 713 951 l 894 801 q 922 751 922 777 q 903 705 922 729 l 711 475 l 903 245 q 922 200 922 222 q 894 150 922 174 l 737 20 q 692 0 713 0 q 642 28 665 0 l 490 210 l 338 28 q 288 0 314 0 q 242 20 266 0 l 85 150 q 58 199 58 174 q 77 245 58 222 l 269 475 z "},"y":{"ha":1065,"x_min":58,"x_max":1007,"o":"m 363 389 l 80 691 q 58 738 58 715 q 83 787 58 763 l 231 926 q 279 949 255 949 q 327 924 303 949 l 532 706 l 738 924 q 786 949 762 949 q 833 926 810 949 l 981 787 q 1007 738 1007 763 q 985 691 1007 715 l 703 394 l 703 68 q 635 0 703 0 l 431 0 q 363 68 363 0 l 363 389 z "},"z":{"ha":814,"x_min":34,"x_max":780,"o":"m 712 949 q 780 882 780 949 l 780 750 q 735 625 780 678 l 441 271 l 712 271 q 780 203 780 271 l 780 68 q 712 0 780 0 l 102 0 q 34 68 34 0 l 34 203 q 87 335 34 271 l 373 678 l 102 678 q 34 746 34 678 l 34 882 q 102 949 34 949 l 712 949 z "},"{":{"ha":678,"x_min":34,"x_max":644,"o":"m 170 610 q 576 1085 170 1049 q 644 1018 644 1085 l 644 883 q 543 797 644 814 q 441 610 441 780 l 441 339 q 524 154 441 172 q 626 136 608 136 q 644 68 644 136 l 644 -68 q 576 -136 644 -136 q 170 339 170 -100 l 102 339 q 34 407 34 339 l 34 543 q 102 610 34 610 l 170 610 z "},"|":{"ha":339,"x_min":34,"x_max":305,"o":"m 34 1017 q 102 1085 34 1085 l 237 1085 q 305 1017 305 1085 l 305 -68 q 237 -136 305 -136 l 102 -136 q 34 -68 34 -136 l 34 1017 z "},"}":{"ha":678,"x_min":34,"x_max":644,"o":"m 509 339 q 102 -136 509 -100 q 34 -68 34 -136 l 34 68 q 52 136 34 136 q 154 154 71 136 q 237 339 237 172 l 237 610 q 136 797 237 780 q 34 883 34 814 l 34 1018 q 102 1085 34 1085 q 509 610 509 1049 l 576 610 q 644 543 644 610 l 644 407 q 576 339 644 339 l 509 339 z "},"~":{"ha":543,"x_min":34,"x_max":509,"o":"m 441 610 q 509 543 509 610 l 509 407 q 441 339 509 339 l 102 339 q 34 407 34 339 l 34 543 q 102 610 34 610 l 441 610 z "},"£":{"ha":949,"x_min":34,"x_max":916,"o":"m 441 408 l 441 339 l 848 339 q 916 271 916 339 l 916 68 q 848 0 916 0 l 170 0 q 102 68 102 0 l 102 408 l 99 408 q 34 474 34 408 q 106 543 34 541 q 241 810 126 696 q 576 949 380 949 q 871 848 745 949 q 895 808 895 830 q 875 766 895 789 l 717 614 q 671 580 690 580 q 647 595 662 580 q 576 610 633 610 q 481 571 520 610 q 458 543 467 557 l 715 543 q 780 475 780 543 q 713 407 780 407 l 441 408 z "},"¥":{"ha":1065,"x_min":58,"x_max":1007,"o":"m 363 338 l 363 389 l 80 691 q 58 738 58 715 q 83 787 58 763 l 231 926 q 279 949 255 949 q 327 924 303 949 l 532 706 l 738 924 q 786 949 762 949 q 833 926 810 949 l 981 787 q 1007 738 1007 763 q 985 691 1007 715 l 703 394 l 703 338 l 837 339 q 905 271 905 338 q 837 203 905 203 l 703 203 l 703 68 q 635 0 703 0 l 431 0 q 363 68 363 0 l 363 203 l 227 203 q 159 271 159 205 q 227 339 159 339 l 363 338 z "},"´":{"ha":488,"x_min":53,"x_max":435,"o":"m 69 1120 l 248 1333 q 288 1356 267 1356 q 326 1340 306 1356 l 411 1269 q 435 1228 435 1250 q 418 1191 435 1210 l 241 977 q 199 954 221 954 q 162 970 182 954 l 77 1041 q 53 1082 53 1060 q 69 1120 53 1100 z "},"÷":{"ha":746,"x_min":34,"x_max":712,"o":"m 373 339 q 493 290 444 339 q 543 170 543 240 q 493 50 543 99 q 373 0 444 0 q 253 50 302 0 q 203 170 203 99 q 253 290 203 240 q 373 339 302 339 m 373 1085 q 493 1036 444 1085 q 543 916 543 986 q 493 795 543 845 q 373 746 444 746 q 253 795 302 746 q 203 916 203 845 q 253 1036 203 986 q 373 1085 302 1085 m 644 678 q 712 610 712 678 l 712 475 q 644 407 712 407 l 102 407 q 34 475 34 407 l 34 610 q 102 678 34 678 l 644 678 z "},"ˆ":{"ha":644,"x_min":51,"x_max":593,"o":"m 586 999 q 593 968 593 981 q 553 939 593 939 l 438 939 q 357 997 380 939 l 322 1082 l 288 997 q 207 939 264 939 l 94 939 q 51 969 51 939 q 57 996 51 981 q 236 1313 149 1227 q 322 1356 279 1356 q 430 1292 366 1356 q 586 999 495 1227 z "},"˜":{"ha":543,"x_min":0,"x_max":411,"o":"m 352 1184 q 411 1126 411 1184 l 411 1008 q 352 949 411 949 l 58 949 q 0 1008 0 949 l 0 1126 q 58 1184 0 1184 l 352 1184 z "},"˝":{"ha":852,"x_min":53,"x_max":799,"o":"m 69 1120 l 248 1333 q 288 1356 267 1356 q 326 1340 306 1356 l 411 1269 q 435 1228 435 1250 q 418 1191 435 1210 l 241 977 q 199 954 221 954 q 162 970 182 954 l 77 1041 q 53 1082 53 1060 q 69 1120 53 1100 m 433 1120 l 612 1333 q 652 1356 631 1356 q 690 1340 670 1356 l 775 1269 q 799 1228 799 1250 q 783 1191 799 1210 l 605 977 q 564 954 585 954 q 526 970 546 954 l 441 1041 q 417 1082 417 1060 q 433 1120 417 1100 z "},"–":{"ha":746,"x_min":34,"x_max":712,"o":"m 644 610 q 712 543 712 610 l 712 407 q 644 339 712 339 l 102 339 q 34 407 34 339 l 34 543 q 102 610 34 610 l 644 610 z "},"—":{"ha":1356,"x_min":34,"x_max":1322,"o":"m 1255 610 q 1322 543 1322 610 l 1322 407 q 1255 339 1322 339 l 102 339 q 34 407 34 339 l 34 543 q 102 610 34 610 l 1255 610 z "},"‘":{"ha":339,"x_min":34,"x_max":305,"o":"m 34 882 q 102 949 34 949 l 237 949 q 305 882 305 949 l 305 610 q 237 543 305 543 l 102 543 q 34 610 34 543 l 34 882 z "},"’":{"ha":339,"x_min":34,"x_max":305,"o":"m 34 882 q 102 949 34 949 l 237 949 q 305 882 305 949 l 305 610 q 237 543 305 543 l 102 543 q 34 610 34 543 l 34 882 z "},"‚":{"ha":339,"x_min":34,"x_max":305,"o":"m 34 68 q 102 136 34 136 l 237 136 q 305 68 305 136 l 305 -203 q 237 -271 305 -271 l 102 -271 q 34 -203 34 -271 l 34 68 z "},"“":{"ha":678,"x_min":34,"x_max":644,"o":"m 34 882 q 102 949 34 949 l 237 949 q 305 882 305 949 l 305 610 q 237 543 305 543 l 102 543 q 34 610 34 543 l 34 882 m 373 882 q 441 949 373 949 l 576 949 q 644 882 644 949 l 644 610 q 576 543 644 543 l 441 543 q 373 610 373 543 l 373 882 z "},"”":{"ha":678,"x_min":34,"x_max":644,"o":"m 34 882 q 102 949 34 949 l 237 949 q 305 882 305 949 l 305 610 q 237 543 305 543 l 102 543 q 34 610 34 543 l 34 882 m 373 882 q 441 949 373 949 l 576 949 q 644 882 644 949 l 644 610 q 576 543 644 543 l 441 543 q 373 610 373 543 l 373 882 z "},"„":{"ha":678,"x_min":34,"x_max":644,"o":"m 34 68 q 102 136 34 136 l 237 136 q 305 68 305 136 l 305 -203 q 237 -271 305 -271 l 102 -271 q 34 -203 34 -271 l 34 68 m 373 68 q 441 136 373 136 l 576 136 q 644 68 644 136 l 644 -203 q 576 -271 644 -271 l 441 -271 q 373 -203 373 -271 l 373 68 z "},"•":{"ha":407,"x_min":34,"x_max":373,"o":"m 203 678 q 323 629 274 678 q 373 509 373 579 q 323 389 373 438 q 203 339 274 339 q 83 389 133 339 q 34 509 34 438 q 83 629 34 579 q 203 678 133 678 z "},"…":{"ha":1220,"x_min":34,"x_max":1186,"o":"m 203 339 q 323 290 274 339 q 373 170 373 240 q 323 50 373 99 q 203 0 274 0 q 83 50 133 0 q 34 170 34 99 q 83 290 34 240 q 203 339 133 339 m 612 339 q 732 290 682 339 q 781 170 781 240 q 732 50 781 99 q 612 0 682 0 q 492 50 541 0 q 442 170 442 99 q 492 290 442 240 q 612 339 541 339 m 1017 339 q 1137 290 1087 339 q 1186 170 1186 240 q 1137 50 1186 99 q 1017 0 1087 0 q 897 50 946 0 q 847 170 847 99 q 897 290 847 240 q 1017 339 946 339 z "},"‹":{"ha":829,"x_min":65,"x_max":772,"o":"m 96 540 l 157 598 l 281 715 l 513 934 q 560 956 537 956 q 609 930 585 956 l 749 783 q 772 735 772 759 q 746 687 772 711 l 528 481 l 746 276 q 772 228 772 252 q 749 180 772 204 l 609 33 q 560 7 585 7 q 513 29 537 7 l 281 248 l 157 365 l 96 423 q 65 481 65 452 q 96 540 65 511 z "},"›":{"ha":829,"x_min":58,"x_max":765,"o":"m 734 423 l 549 248 l 316 29 q 269 7 292 7 q 220 33 244 7 l 81 180 q 58 228 58 204 q 83 276 58 252 l 301 481 l 83 687 q 58 735 58 711 q 81 783 58 759 l 220 930 q 269 956 244 956 q 316 934 292 956 l 549 715 l 734 540 q 765 481 765 511 q 734 423 765 452 z "},"€":{"ha":949,"x_min":34,"x_max":916,"o":"m 458 408 q 481 379 467 392 q 576 339 520 339 q 629 349 605 339 q 669 366 650 366 q 711 339 692 366 l 878 172 q 895 139 895 155 q 871 102 895 120 q 576 0 745 0 q 241 139 380 0 q 106 408 126 254 l 103 408 q 34 474 34 408 q 106 543 34 541 q 241 810 126 696 q 576 949 380 949 q 871 847 745 949 q 897 807 897 828 q 882 774 897 791 l 718 610 q 676 583 695 583 q 650 597 667 583 q 576 610 633 610 q 481 571 520 610 q 458 542 467 557 l 848 543 q 916 475 916 543 q 848 407 916 407 l 458 408 z "},"™":{"ha":796,"x_min":34,"x_max":762,"o":"m 239 853 l 239 610 l 142 610 l 142 853 l 34 853 l 34 950 l 349 950 l 349 853 l 239 853 m 762 950 l 762 610 l 665 610 l 665 772 l 616 610 l 519 610 l 471 772 l 471 610 l 374 610 l 374 950 l 495 950 l 568 756 l 641 950 l 762 950 z "},"−":{"ha":543,"x_min":34,"x_max":509,"o":"m 441 610 q 509 543 509 610 l 509 407 q 441 339 509 339 l 102 339 q 34 407 34 339 l 34 543 q 102 610 34 610 l 441 610 z "}}}
